<mxfile host="65bd71144e">
    <diagram id="dwjXdTP_CAgxYfrXVhDM" name="Page-1">
        <mxGraphModel dx="1015" dy="607" grid="1" gridSize="10" guides="1" tooltips="1" connect="1" arrows="1" fold="1" page="1" pageScale="1" pageWidth="850" pageHeight="1100" math="0" shadow="0">
            <root>
                <mxCell id="0"/>
                <mxCell id="1" parent="0"/>
                <mxCell id="6" value="&amp;lt;&amp;lt;interface&amp;gt;&amp;gt;&lt;br&gt;&lt;span style=&quot;color: rgb(63, 63, 63);&quot;&gt;&lt;b&gt;ICustomerRepository&lt;/b&gt;&lt;/span&gt;&lt;br&gt;{abstract}" style="swimlane;fontStyle=0;align=center;verticalAlign=top;childLayout=stackLayout;horizontal=1;startSize=55;horizontalStack=0;resizeParent=1;resizeParentMax=0;resizeLast=0;collapsible=0;marginBottom=0;html=1;whiteSpace=wrap;" parent="1" vertex="1">
                    <mxGeometry x="30" y="70" width="220" height="176" as="geometry"/>
                </mxCell>
                <mxCell id="10" value="..." style="text;html=1;strokeColor=none;fillColor=none;align=left;verticalAlign=middle;spacingLeft=4;spacingRight=4;overflow=hidden;rotatable=0;points=[[0,0.5],[1,0.5]];portConstraint=eastwest;whiteSpace=wrap;" parent="6" vertex="1">
                    <mxGeometry y="55" width="220" height="20" as="geometry"/>
                </mxCell>
                <mxCell id="11" value="" style="line;strokeWidth=1;fillColor=none;align=left;verticalAlign=middle;spacingTop=-1;spacingLeft=3;spacingRight=3;rotatable=0;labelPosition=right;points=[];portConstraint=eastwest;" parent="6" vertex="1">
                    <mxGeometry y="75" width="220" height="8" as="geometry"/>
                </mxCell>
                <mxCell id="13" value="&lt;span style=&quot;color: rgb(63, 63, 63); text-align: center;&quot;&gt;+ create(c: Customer): bool&lt;/span&gt;&lt;br style=&quot;color: rgb(63, 63, 63); text-align: center;&quot;&gt;&lt;span style=&quot;color: rgb(63, 63, 63); text-align: center;&quot;&gt;+ delete(code: int): bool&lt;/span&gt;&lt;br style=&quot;color: rgb(63, 63, 63); text-align: center;&quot;&gt;&lt;span style=&quot;color: rgb(63, 63, 63); text-align: center;&quot;&gt;+ update(c: Customer): bool&lt;/span&gt;&lt;br style=&quot;color: rgb(63, 63, 63); text-align: center;&quot;&gt;&lt;span style=&quot;color: rgb(63, 63, 63); text-align: center;&quot;&gt;+ get_all(): List[Customer]&lt;/span&gt;&lt;br style=&quot;color: rgb(63, 63, 63); text-align: center;&quot;&gt;&lt;span style=&quot;color: rgb(63, 63, 63); text-align: center;&quot;&gt;+ get_by_code(code: int): Customer&lt;/span&gt;" style="text;html=1;strokeColor=none;fillColor=none;align=left;verticalAlign=middle;spacingLeft=4;spacingRight=4;overflow=hidden;rotatable=0;points=[[0,0.5],[1,0.5]];portConstraint=eastwest;whiteSpace=wrap;" parent="6" vertex="1">
                    <mxGeometry y="83" width="220" height="93" as="geometry"/>
                </mxCell>
                <mxCell id="14" value="&lt;span style=&quot;color: rgb(0, 0, 0);&quot;&gt;&lt;b&gt;SQLiteCustomerRepository:&lt;/b&gt;&lt;/span&gt;&lt;div&gt;&lt;span style=&quot;color: rgb(0, 0, 0);&quot;&gt;ICustomerRepository&lt;/span&gt;&lt;/div&gt;" style="swimlane;fontStyle=0;align=center;verticalAlign=top;childLayout=stackLayout;horizontal=1;startSize=40;horizontalStack=0;resizeParent=1;resizeParentMax=0;resizeLast=0;collapsible=0;marginBottom=0;html=1;whiteSpace=wrap;" parent="1" vertex="1">
                    <mxGeometry x="10" y="330" width="170" height="165" as="geometry"/>
                </mxCell>
                <mxCell id="16" value="&lt;span style=&quot;color: rgb(63, 63, 63); text-align: center;&quot;&gt;- db_path: str&lt;/span&gt;" style="text;html=1;strokeColor=none;fillColor=none;align=left;verticalAlign=middle;spacingLeft=4;spacingRight=4;overflow=hidden;rotatable=0;points=[[0,0.5],[1,0.5]];portConstraint=eastwest;whiteSpace=wrap;" parent="14" vertex="1">
                    <mxGeometry y="40" width="170" height="30" as="geometry"/>
                </mxCell>
                <mxCell id="19" value="" style="line;strokeWidth=1;fillColor=none;align=left;verticalAlign=middle;spacingTop=-1;spacingLeft=3;spacingRight=3;rotatable=0;labelPosition=right;points=[];portConstraint=eastwest;" parent="14" vertex="1">
                    <mxGeometry y="70" width="170" height="8" as="geometry"/>
                </mxCell>
                <mxCell id="21" value="&lt;span style=&quot;color: rgb(63, 63, 63); text-align: center;&quot;&gt;+ create()&lt;/span&gt;&lt;br style=&quot;color: rgb(63, 63, 63); text-align: center;&quot;&gt;&lt;span style=&quot;color: rgb(63, 63, 63); text-align: center;&quot;&gt;+ delete()&lt;/span&gt;&lt;br style=&quot;color: rgb(63, 63, 63); text-align: center;&quot;&gt;&lt;span style=&quot;color: rgb(63, 63, 63); text-align: center;&quot;&gt;+ update()&lt;/span&gt;&lt;br style=&quot;color: rgb(63, 63, 63); text-align: center;&quot;&gt;&lt;span style=&quot;color: rgb(63, 63, 63); text-align: center;&quot;&gt;+ get_all()&lt;/span&gt;&lt;br style=&quot;color: rgb(63, 63, 63); text-align: center;&quot;&gt;&lt;span style=&quot;color: rgb(63, 63, 63); text-align: center;&quot;&gt;+ get_by_code()&lt;/span&gt;" style="text;html=1;strokeColor=none;fillColor=none;align=left;verticalAlign=middle;spacingLeft=4;spacingRight=4;overflow=hidden;rotatable=0;points=[[0,0.5],[1,0.5]];portConstraint=eastwest;whiteSpace=wrap;" parent="14" vertex="1">
                    <mxGeometry y="78" width="170" height="87" as="geometry"/>
                </mxCell>
                <mxCell id="31" style="endArrow=open;dashed=1;entryX=0.397;entryY=1.02;entryDx=0;entryDy=0;entryPerimeter=0;exitX=0.5;exitY=0;exitDx=0;exitDy=0;" parent="1" source="14" target="13" edge="1">
                    <mxGeometry relative="1" as="geometry">
                        <mxPoint x="103.5" y="330" as="sourcePoint"/>
                        <mxPoint x="127" y="260" as="targetPoint"/>
                    </mxGeometry>
                </mxCell>
                <mxCell id="32" value="&lt;span style=&quot;color: rgb(0, 0, 0);&quot;&gt;&lt;b&gt;Customer&lt;/b&gt;&lt;/span&gt;" style="swimlane;fontStyle=0;align=center;verticalAlign=top;childLayout=stackLayout;horizontal=1;startSize=40;horizontalStack=0;resizeParent=1;resizeParentMax=0;resizeLast=0;collapsible=0;marginBottom=0;html=1;whiteSpace=wrap;" parent="1" vertex="1">
                    <mxGeometry x="320" y="70" width="220" height="175" as="geometry"/>
                </mxCell>
                <mxCell id="33" value="&lt;span style=&quot;color: rgb(63, 63, 63); text-align: center;&quot;&gt;- code: Customer_Code&lt;/span&gt;&lt;br style=&quot;color: rgb(63, 63, 63); text-align: center;&quot;&gt;&lt;span style=&quot;color: rgb(63, 63, 63); text-align: center;&quot;&gt;- name: Customer_Name&lt;/span&gt;&lt;br style=&quot;color: rgb(63, 63, 63); text-align: center;&quot;&gt;&lt;span style=&quot;color: rgb(63, 63, 63); text-align: center;&quot;&gt;- lastname: Customer_Lastname&lt;/span&gt;&lt;br style=&quot;color: rgb(63, 63, 63); text-align: center;&quot;&gt;&lt;span style=&quot;color: rgb(63, 63, 63); text-align: center;&quot;&gt;- address: Customer_Address&lt;/span&gt;" style="text;html=1;strokeColor=none;fillColor=none;align=left;verticalAlign=middle;spacingLeft=4;spacingRight=4;overflow=hidden;rotatable=0;points=[[0,0.5],[1,0.5]];portConstraint=eastwest;whiteSpace=wrap;" parent="32" vertex="1">
                    <mxGeometry y="40" width="220" height="85" as="geometry"/>
                </mxCell>
                <mxCell id="34" value="" style="line;strokeWidth=1;fillColor=none;align=left;verticalAlign=middle;spacingTop=-1;spacingLeft=3;spacingRight=3;rotatable=0;labelPosition=right;points=[];portConstraint=eastwest;" parent="32" vertex="1">
                    <mxGeometry y="125" width="220" height="8" as="geometry"/>
                </mxCell>
                <mxCell id="35" value="&lt;span style=&quot;color: rgb(63, 63, 63); text-align: center;&quot;&gt;+ to_dict()&lt;/span&gt;&lt;br style=&quot;color: rgb(63, 63, 63); text-align: center;&quot;&gt;&lt;span style=&quot;color: rgb(63, 63, 63); text-align: center;&quot;&gt;+ __str__()&lt;/span&gt;" style="text;html=1;strokeColor=none;fillColor=none;align=left;verticalAlign=middle;spacingLeft=4;spacingRight=4;overflow=hidden;rotatable=0;points=[[0,0.5],[1,0.5]];portConstraint=eastwest;whiteSpace=wrap;" parent="32" vertex="1">
                    <mxGeometry y="133" width="220" height="42" as="geometry"/>
                </mxCell>
                <mxCell id="36" value="&lt;span style=&quot;color: rgb(0, 0, 0);&quot;&gt;&lt;b&gt;CustomerCode&lt;/b&gt;&lt;/span&gt;" style="swimlane;fontStyle=0;align=center;verticalAlign=top;childLayout=stackLayout;horizontal=1;startSize=40;horizontalStack=0;resizeParent=1;resizeParentMax=0;resizeLast=0;collapsible=0;marginBottom=0;html=1;whiteSpace=wrap;" parent="1" vertex="1">
                    <mxGeometry x="620" y="20" width="220" height="88" as="geometry"/>
                </mxCell>
                <mxCell id="37" value="&lt;span style=&quot;color: rgb(63, 63, 63); text-align: center;&quot;&gt;- value: int&lt;/span&gt;" style="text;html=1;strokeColor=none;fillColor=none;align=left;verticalAlign=middle;spacingLeft=4;spacingRight=4;overflow=hidden;rotatable=0;points=[[0,0.5],[1,0.5]];portConstraint=eastwest;whiteSpace=wrap;" parent="36" vertex="1">
                    <mxGeometry y="40" width="220" height="40" as="geometry"/>
                </mxCell>
                <mxCell id="38" value="" style="line;strokeWidth=1;fillColor=none;align=left;verticalAlign=middle;spacingTop=-1;spacingLeft=3;spacingRight=3;rotatable=0;labelPosition=right;points=[];portConstraint=eastwest;" parent="36" vertex="1">
                    <mxGeometry y="80" width="220" height="8" as="geometry"/>
                </mxCell>
                <mxCell id="40" value="&lt;span style=&quot;color: rgb(0, 0, 0);&quot;&gt;&lt;b&gt;CustomerName&lt;/b&gt;&lt;/span&gt;" style="swimlane;fontStyle=0;align=center;verticalAlign=top;childLayout=stackLayout;horizontal=1;startSize=40;horizontalStack=0;resizeParent=1;resizeParentMax=0;resizeLast=0;collapsible=0;marginBottom=0;html=1;whiteSpace=wrap;" parent="1" vertex="1">
                    <mxGeometry x="620" y="130" width="220" height="88" as="geometry"/>
                </mxCell>
                <mxCell id="41" value="&lt;span style=&quot;color: rgb(63, 63, 63); text-align: center;&quot;&gt;- value: int&lt;/span&gt;" style="text;html=1;strokeColor=none;fillColor=none;align=left;verticalAlign=middle;spacingLeft=4;spacingRight=4;overflow=hidden;rotatable=0;points=[[0,0.5],[1,0.5]];portConstraint=eastwest;whiteSpace=wrap;" parent="40" vertex="1">
                    <mxGeometry y="40" width="220" height="40" as="geometry"/>
                </mxCell>
                <mxCell id="42" value="" style="line;strokeWidth=1;fillColor=none;align=left;verticalAlign=middle;spacingTop=-1;spacingLeft=3;spacingRight=3;rotatable=0;labelPosition=right;points=[];portConstraint=eastwest;" parent="40" vertex="1">
                    <mxGeometry y="80" width="220" height="8" as="geometry"/>
                </mxCell>
                <mxCell id="43" value="&lt;span style=&quot;color: rgb(0, 0, 0);&quot;&gt;&lt;b&gt;CustomerLastname&lt;/b&gt;&lt;/span&gt;" style="swimlane;fontStyle=0;align=center;verticalAlign=top;childLayout=stackLayout;horizontal=1;startSize=40;horizontalStack=0;resizeParent=1;resizeParentMax=0;resizeLast=0;collapsible=0;marginBottom=0;html=1;whiteSpace=wrap;" parent="1" vertex="1">
                    <mxGeometry x="620" y="230" width="220" height="88" as="geometry"/>
                </mxCell>
                <mxCell id="44" value="&lt;span style=&quot;color: rgb(63, 63, 63); text-align: center;&quot;&gt;- value: int&lt;/span&gt;" style="text;html=1;strokeColor=none;fillColor=none;align=left;verticalAlign=middle;spacingLeft=4;spacingRight=4;overflow=hidden;rotatable=0;points=[[0,0.5],[1,0.5]];portConstraint=eastwest;whiteSpace=wrap;" parent="43" vertex="1">
                    <mxGeometry y="40" width="220" height="40" as="geometry"/>
                </mxCell>
                <mxCell id="45" value="" style="line;strokeWidth=1;fillColor=none;align=left;verticalAlign=middle;spacingTop=-1;spacingLeft=3;spacingRight=3;rotatable=0;labelPosition=right;points=[];portConstraint=eastwest;" parent="43" vertex="1">
                    <mxGeometry y="80" width="220" height="8" as="geometry"/>
                </mxCell>
                <mxCell id="46" value="&lt;span style=&quot;color: rgb(0, 0, 0);&quot;&gt;&lt;b&gt;CustomerAddress&lt;/b&gt;&lt;/span&gt;" style="swimlane;fontStyle=0;align=center;verticalAlign=top;childLayout=stackLayout;horizontal=1;startSize=40;horizontalStack=0;resizeParent=1;resizeParentMax=0;resizeLast=0;collapsible=0;marginBottom=0;html=1;whiteSpace=wrap;" parent="1" vertex="1">
                    <mxGeometry x="620" y="330" width="220" height="88" as="geometry"/>
                </mxCell>
                <mxCell id="47" value="&lt;span style=&quot;color: rgb(63, 63, 63); text-align: center;&quot;&gt;- value: int&lt;/span&gt;" style="text;html=1;strokeColor=none;fillColor=none;align=left;verticalAlign=middle;spacingLeft=4;spacingRight=4;overflow=hidden;rotatable=0;points=[[0,0.5],[1,0.5]];portConstraint=eastwest;whiteSpace=wrap;" parent="46" vertex="1">
                    <mxGeometry y="40" width="220" height="40" as="geometry"/>
                </mxCell>
                <mxCell id="48" value="" style="line;strokeWidth=1;fillColor=none;align=left;verticalAlign=middle;spacingTop=-1;spacingLeft=3;spacingRight=3;rotatable=0;labelPosition=right;points=[];portConstraint=eastwest;" parent="46" vertex="1">
                    <mxGeometry y="80" width="220" height="8" as="geometry"/>
                </mxCell>
                <mxCell id="54" value="&amp;lt;&amp;lt;interface&amp;gt;&amp;gt;&lt;br&gt;&lt;span style=&quot;color: rgb(63, 63, 63);&quot;&gt;&lt;b&gt;ICustomerService&lt;/b&gt;&lt;/span&gt;&lt;br&gt;{abstract}" style="swimlane;fontStyle=0;align=center;verticalAlign=top;childLayout=stackLayout;horizontal=1;startSize=55;horizontalStack=0;resizeParent=1;resizeParentMax=0;resizeLast=0;collapsible=0;marginBottom=0;html=1;whiteSpace=wrap;" parent="1" vertex="1">
                    <mxGeometry x="290" y="330" width="220" height="176" as="geometry"/>
                </mxCell>
                <mxCell id="55" value="..." style="text;html=1;strokeColor=none;fillColor=none;align=left;verticalAlign=middle;spacingLeft=4;spacingRight=4;overflow=hidden;rotatable=0;points=[[0,0.5],[1,0.5]];portConstraint=eastwest;whiteSpace=wrap;" parent="54" vertex="1">
                    <mxGeometry y="55" width="220" height="20" as="geometry"/>
                </mxCell>
                <mxCell id="56" value="" style="line;strokeWidth=1;fillColor=none;align=left;verticalAlign=middle;spacingTop=-1;spacingLeft=3;spacingRight=3;rotatable=0;labelPosition=right;points=[];portConstraint=eastwest;" parent="54" vertex="1">
                    <mxGeometry y="75" width="220" height="8" as="geometry"/>
                </mxCell>
                <mxCell id="57" value="&lt;span style=&quot;color: rgb(63, 63, 63); text-align: center;&quot;&gt;+ create_customer(): bool&lt;/span&gt;&lt;br style=&quot;color: rgb(63, 63, 63); text-align: center;&quot;&gt;&lt;span style=&quot;color: rgb(63, 63, 63); text-align: center;&quot;&gt;+ delete_customer(): bool&lt;/span&gt;&lt;br style=&quot;color: rgb(63, 63, 63); text-align: center;&quot;&gt;&lt;span style=&quot;color: rgb(63, 63, 63); text-align: center;&quot;&gt;+ update_customer(): bool&lt;/span&gt;&lt;br style=&quot;color: rgb(63, 63, 63); text-align: center;&quot;&gt;&lt;span style=&quot;color: rgb(63, 63, 63); text-align: center;&quot;&gt;+ get_all_customers(): List&lt;/span&gt;&lt;br style=&quot;color: rgb(63, 63, 63); text-align: center;&quot;&gt;&lt;span style=&quot;color: rgb(63, 63, 63); text-align: center;&quot;&gt;+ get_customer_by_code(): Customer&lt;/span&gt;" style="text;html=1;strokeColor=none;fillColor=none;align=left;verticalAlign=middle;spacingLeft=4;spacingRight=4;overflow=hidden;rotatable=0;points=[[0,0.5],[1,0.5]];portConstraint=eastwest;whiteSpace=wrap;" parent="54" vertex="1">
                    <mxGeometry y="83" width="220" height="93" as="geometry"/>
                </mxCell>
                <mxCell id="58" value="&lt;span style=&quot;color: rgb(0, 0, 0);&quot;&gt;&lt;b&gt;CustomerService: &lt;/b&gt;ICustomerService&lt;/span&gt;" style="swimlane;fontStyle=0;align=center;verticalAlign=top;childLayout=stackLayout;horizontal=1;startSize=40;horizontalStack=0;resizeParent=1;resizeParentMax=0;resizeLast=0;collapsible=0;marginBottom=0;html=1;whiteSpace=wrap;" parent="1" vertex="1">
                    <mxGeometry x="290" y="570" width="220" height="190" as="geometry"/>
                </mxCell>
                <mxCell id="59" value="&lt;span style=&quot;color: rgb(63, 63, 63); text-align: center;&quot;&gt;- repo: ICustomerRepository&lt;/span&gt;" style="text;html=1;strokeColor=none;fillColor=none;align=left;verticalAlign=middle;spacingLeft=4;spacingRight=4;overflow=hidden;rotatable=0;points=[[0,0.5],[1,0.5]];portConstraint=eastwest;whiteSpace=wrap;" parent="58" vertex="1">
                    <mxGeometry y="40" width="220" height="40" as="geometry"/>
                </mxCell>
                <mxCell id="60" value="" style="line;strokeWidth=1;fillColor=none;align=left;verticalAlign=middle;spacingTop=-1;spacingLeft=3;spacingRight=3;rotatable=0;labelPosition=right;points=[];portConstraint=eastwest;" parent="58" vertex="1">
                    <mxGeometry y="80" width="220" height="8" as="geometry"/>
                </mxCell>
                <mxCell id="61" value="&lt;span style=&quot;color: rgb(63, 63, 63); text-align: center;&quot;&gt;+ create_customer()&lt;/span&gt;&lt;br style=&quot;color: rgb(63, 63, 63); text-align: center;&quot;&gt;&lt;span style=&quot;color: rgb(63, 63, 63); text-align: center;&quot;&gt;+ delete_customer()&lt;/span&gt;&lt;br style=&quot;color: rgb(63, 63, 63); text-align: center;&quot;&gt;&lt;span style=&quot;color: rgb(63, 63, 63); text-align: center;&quot;&gt;+ update_customer()&lt;/span&gt;&lt;br style=&quot;color: rgb(63, 63, 63); text-align: center;&quot;&gt;&lt;span style=&quot;color: rgb(63, 63, 63); text-align: center;&quot;&gt;+ get_all_customers()&lt;/span&gt;&lt;br style=&quot;color: rgb(63, 63, 63); text-align: center;&quot;&gt;&lt;span style=&quot;color: rgb(63, 63, 63); text-align: center;&quot;&gt;+ get_customer_by_code()&lt;/span&gt;" style="text;html=1;strokeColor=none;fillColor=none;align=left;verticalAlign=middle;spacingLeft=4;spacingRight=4;overflow=hidden;rotatable=0;points=[[0,0.5],[1,0.5]];portConstraint=eastwest;whiteSpace=wrap;" parent="58" vertex="1">
                    <mxGeometry y="88" width="220" height="102" as="geometry"/>
                </mxCell>
                <mxCell id="62" style="endArrow=open;dashed=1;exitX=0.5;exitY=0;exitDx=0;exitDy=0;" parent="1" source="58" target="57" edge="1">
                    <mxGeometry relative="1" as="geometry">
                        <mxPoint x="125" y="351" as="sourcePoint"/>
                        <mxPoint x="401" y="510" as="targetPoint"/>
                    </mxGeometry>
                </mxCell>
                <mxCell id="64" value="" style="endArrow=diamondThin;endFill=0;endSize=24;html=1;entryX=-0.012;entryY=0.123;entryDx=0;entryDy=0;exitX=0.692;exitY=1.002;exitDx=0;exitDy=0;exitPerimeter=0;entryPerimeter=0;" parent="1" source="13" target="58" edge="1">
                    <mxGeometry width="160" relative="1" as="geometry">
                        <mxPoint x="330" y="480" as="sourcePoint"/>
                        <mxPoint x="490" y="480" as="targetPoint"/>
                    </mxGeometry>
                </mxCell>
                <mxCell id="65" value="" style="endArrow=diamondThin;endFill=1;endSize=24;html=1;entryX=1.007;entryY=0.171;entryDx=0;entryDy=0;entryPerimeter=0;exitX=0;exitY=0.25;exitDx=0;exitDy=0;" parent="1" source="36" target="33" edge="1">
                    <mxGeometry width="160" relative="1" as="geometry">
                        <mxPoint x="330" y="310" as="sourcePoint"/>
                        <mxPoint x="490" y="310" as="targetPoint"/>
                    </mxGeometry>
                </mxCell>
                <mxCell id="67" value="" style="endArrow=diamondThin;endFill=1;endSize=24;html=1;entryX=1;entryY=0.5;entryDx=0;entryDy=0;exitX=0;exitY=0.25;exitDx=0;exitDy=0;" parent="1" source="40" target="33" edge="1">
                    <mxGeometry width="160" relative="1" as="geometry">
                        <mxPoint x="620" y="281" as="sourcePoint"/>
                        <mxPoint x="580" y="182" as="targetPoint"/>
                    </mxGeometry>
                </mxCell>
                <mxCell id="68" value="" style="endArrow=diamondThin;endFill=1;endSize=24;html=1;exitX=-0.012;exitY=0.217;exitDx=0;exitDy=0;exitPerimeter=0;" parent="1" source="44" edge="1">
                    <mxGeometry width="160" relative="1" as="geometry">
                        <mxPoint x="640" y="210" as="sourcePoint"/>
                        <mxPoint x="540" y="175" as="targetPoint"/>
                    </mxGeometry>
                </mxCell>
                <mxCell id="69" value="" style="endArrow=diamondThin;endFill=1;endSize=24;html=1;exitX=0;exitY=0.5;exitDx=0;exitDy=0;" parent="1" source="47" edge="1">
                    <mxGeometry width="160" relative="1" as="geometry">
                        <mxPoint x="650" y="220" as="sourcePoint"/>
                        <mxPoint x="540" y="220" as="targetPoint"/>
                    </mxGeometry>
                </mxCell>
                <mxCell id="73" value="customer_view.py&lt;div&gt;&lt;font color=&quot;#000000&quot;&gt;&lt;br&gt;&lt;/font&gt;+ run(service: ICustomerService)&lt;/div&gt;" style="shape=umlClass;whiteSpace=wrap;html=1;" parent="1" vertex="1">
                    <mxGeometry x="590" y="570" width="240" height="60" as="geometry"/>
                </mxCell>
                <mxCell id="75" value="" style="endArrow=diamondThin;endFill=0;endSize=24;html=1;entryX=0;entryY=0.5;entryDx=0;entryDy=0;exitX=1;exitY=0.5;exitDx=0;exitDy=0;" parent="1" source="57" target="73" edge="1">
                    <mxGeometry width="160" relative="1" as="geometry">
                        <mxPoint x="192" y="256" as="sourcePoint"/>
                        <mxPoint x="297" y="603" as="targetPoint"/>
                    </mxGeometry>
                </mxCell>
            </root>
        </mxGraphModel>
    </diagram>
</mxfile>